<svg xmlns="http://www.w3.org/2000/svg" viewBox="0 0 897.9858 66.2402"><defs><style>.cls-1{isolation:isolate;}.cls-2{fill:#fff;}.cls-3{opacity:0.82;mix-blend-mode:lighten;}.cls-4{fill:#3bffa1;}</style></defs><title>title_1</title><g class="cls-1"><g id="Layer_2" data-name="Layer 2"><g id="text"><path class="cls-2" d="M18.56,65.6H6L32.16,8.64H42.24L68.4,65.6H56L35.84,18.56h3.04Zm-.72-12.64,4.8-9.52H51.12l4.72,9.52Z"/><path class="cls-2" d="M87.3589,66.24q-7.6011,0-11.36-4.24-3.761-4.2393-3.76-12.8V25.04h12.08v24.4q0,3.7619,1.56,5.56a6.0675,6.0675,0,0,0,4.84,1.8,7.7254,7.7254,0,0,0,6-2.56,9.7409,9.7409,0,0,0,2.32-6.8V25.04h12.16V65.6H99.439V57.52l1.04.08a13.6279,13.6279,0,0,1-5.16,6.44A14.32,14.32,0,0,1,87.3589,66.24Z"/><path class="cls-2" d="M161.5977,65.6h-11.92V55.68l.96,1.76a11.657,11.657,0,0,1-5.12,6.48,16.1076,16.1076,0,0,1-8.64,2.32,16.4594,16.4594,0,0,1-9.32-2.68,18.0436,18.0436,0,0,1-6.32-7.44,25.5716,25.5716,0,0,1-2.28-11.16,25.498,25.498,0,0,1,2.24-11.04,16.734,16.734,0,0,1,15.68-9.92,15.5264,15.5264,0,0,1,8.64,2.44,12.243,12.243,0,0,1,5.12,6.44l-1.12,1.44V6.72h12.08Zm-21.2-8.56a8.2745,8.2745,0,0,0,6.84-3.04q2.439-3.04,2.44-8.88,0-5.5986-2.44-8.72a8.1906,8.1906,0,0,0-6.84-3.12,8.4537,8.4537,0,0,0-7,3.04q-2.4412,3.0411-2.44,8.64,0,5.841,2.52,8.96A8.4114,8.4114,0,0,0,140.3975,57.04Z"/><path class="cls-2" d="M170.877,6h13.04V17.36h-13.04Zm.48,59.6V25.04h12.08V65.6Z"/><path class="cls-2" d="M212.6362,66.24a23.802,23.802,0,0,1-11.36-2.56,17.7941,17.7941,0,0,1-7.4-7.32,23.0917,23.0917,0,0,1-2.6-11.24,22.8661,22.8661,0,0,1,2.6-11.2,18.12,18.12,0,0,1,7.4-7.32,23.5215,23.5215,0,0,1,11.36-2.6,23.1692,23.1692,0,0,1,11.2,2.6,18.1233,18.1233,0,0,1,7.4,7.32,22.8815,22.8815,0,0,1,2.6,11.2,23.1073,23.1073,0,0,1-2.6,11.24,17.797,17.797,0,0,1-7.4,7.32A23.444,23.444,0,0,1,212.6362,66.24Zm0-9.2a8.3045,8.3045,0,0,0,6.8-2.92q2.4-2.9195,2.4-9,0-6-2.4-8.92a8.3075,8.3075,0,0,0-6.8-2.92,8.5151,8.5151,0,0,0-6.92,2.92q-2.4411,2.9209-2.44,8.92,0,6.0805,2.4,9A8.49,8.49,0,0,0,212.6362,57.04Z"/><path class="cls-2" d="M264.8745,65.6V8.64h38.4v9.92h-26.08v13.2h24.48V41.6h-24.48v24Z"/><path class="cls-2" d="M345.1938,61.28a22.278,22.278,0,0,1-7.2,3.64,28.6369,28.6369,0,0,1-8.56,1.32,25.0735,25.0735,0,0,1-11.72-2.56,17.9388,17.9388,0,0,1-7.56-7.28,22.5832,22.5832,0,0,1-2.64-11.2,23.0915,23.0915,0,0,1,2.56-11.04,18.9548,18.9548,0,0,1,7-7.48,19.6586,19.6586,0,0,1,10.36-2.68,18.6316,18.6316,0,0,1,9.84,2.52,16.6189,16.6189,0,0,1,6.4,7.12,24.72,24.72,0,0,1,2.24,10.92v1.76h-27.76l.16-6h20.4l-3.12,2.48q.0791-5.1189-1.96-7.72a7.032,7.032,0,0,0-5.88-2.6,7.6155,7.6155,0,0,0-6.44,3q-2.28,3-2.28,8.76,0,6.8005,2.68,9.84,2.6791,3.0409,8.2,3.04a19.8591,19.8591,0,0,0,6.32-1.04,21.0253,21.0253,0,0,0,5.76-2.96Z"/><path class="cls-2" d="M369.4326,66.24a17.2309,17.2309,0,0,1-9.36-2.56,16.8966,16.8966,0,0,1-6.32-7.28,25.49,25.49,0,0,1-2.24-11.04,25.9115,25.9115,0,0,1,2.28-11.16,17.9589,17.9589,0,0,1,6.32-7.52,16.47,16.47,0,0,1,9.32-2.68,15.7156,15.7156,0,0,1,8.64,2.4,12.0268,12.0268,0,0,1,5.1191,6.48l-.959.64V25.04h11.92V65.6h-11.92V57.28l.959.16a11.6515,11.6515,0,0,1-5.1191,6.48A16.1081,16.1081,0,0,1,369.4326,66.24Zm3.52-9.2A8.2775,8.2775,0,0,0,379.7935,54q2.4375-3.04,2.4394-8.8,0-5.76-2.4394-8.84a8.2383,8.2383,0,0,0-6.8409-3.08,8.3286,8.3286,0,0,0-6.92,3.2q-2.52,3.2007-2.52,8.88,0,5.6814,2.44,8.68A8.5028,8.5028,0,0,0,372.9526,57.04Z"/><path class="cls-2" d="M399.3521,34.08V25.04h30.08v9.04Zm30.08,21.76v9.28a15.5817,15.5817,0,0,1-3.36.88,25.4606,25.4606,0,0,1-3.6.24q-7.522,0-11.4805-4.28t-3.96-11.88V15.52l12.08-3.92V49.84a7.299,7.299,0,0,0,.88,3.84,4.89,4.89,0,0,0,2.32,2.04,8.0327,8.0327,0,0,0,3.12.6,14.5162,14.5162,0,0,0,1.88-.12Q428.23,56.08,429.4321,55.84Z"/><path class="cls-2" d="M450.4712,66.24q-7.6011,0-11.3594-4.24-3.7617-4.2393-3.7607-12.8V25.04h12.08v24.4q0,3.7619,1.56,5.56a6.0664,6.0664,0,0,0,4.84,1.8,7.7254,7.7254,0,0,0,6-2.56,9.7411,9.7411,0,0,0,2.32-6.8V25.04H474.311V65.6h-11.76V57.52l1.04.08a13.6256,13.6256,0,0,1-5.16,6.44A14.3188,14.3188,0,0,1,450.4712,66.24Z"/><path class="cls-2" d="M484.0708,65.6V36.64q0-2.88-.12-5.8t-.5195-5.8h11.3593l1.28,10.72-1.28-.64a12.7017,12.7017,0,0,1,4.6006-8.24,13.2219,13.2219,0,0,1,8.28-2.8,11.28,11.28,0,0,1,2.4394.24,12.3318,12.3318,0,0,1,1.88.56l-.08,11.04a14.0846,14.0846,0,0,0-5.92-1.36,10.8536,10.8536,0,0,0-5.3994,1.2,8.22,8.22,0,0,0-3.28,3.4,11.0949,11.0949,0,0,0-1.16,5.24V65.6Z"/><path class="cls-2" d="M551.75,61.28a22.272,22.272,0,0,1-7.1992,3.64,28.647,28.647,0,0,1-8.5606,1.32,25.0763,25.0763,0,0,1-11.72-2.56,17.945,17.945,0,0,1-7.56-7.28,22.5874,22.5874,0,0,1-2.64-11.2A23.0859,23.0859,0,0,1,516.63,34.16a18.95,18.95,0,0,1,7-7.48A19.6564,19.6564,0,0,1,533.99,24a18.63,18.63,0,0,1,9.84,2.52,16.6238,16.6238,0,0,1,6.4,7.12,24.7272,24.7272,0,0,1,2.24,10.92v1.76H524.71l.16-6h20.4l-3.12,2.48q.079-5.1189-1.96-7.72a7.0331,7.0331,0,0,0-5.88-2.6,7.6178,7.6178,0,0,0-6.4405,3q-2.2793,3-2.2793,8.76,0,6.8005,2.68,9.84,2.6793,3.0409,8.2,3.04a19.8578,19.8578,0,0,0,6.3194-1.04,21.0447,21.0447,0,0,0,5.7607-2.96Z"/><path class="cls-2" d="M583.5083,65.6V8.64h9.92L613.9888,55.6h-4.4l20.48-46.96h9.84V65.6h-11.04l-.08-38.48,2.88.72-15.92,37.76h-8.08l-16.24-37.76,3.04-.72V65.6Z"/><path class="cls-2" d="M666.5483,66.24a17.2292,17.2292,0,0,1-9.3593-2.56,16.8909,16.8909,0,0,1-6.32-7.28,25.4812,25.4812,0,0,1-2.24-11.04,25.9056,25.9056,0,0,1,2.28-11.16,17.9535,17.9535,0,0,1,6.32-7.52A16.47,16.47,0,0,1,666.5483,24a15.718,15.718,0,0,1,8.6407,2.4,12.0309,12.0309,0,0,1,5.1191,6.48l-.96.64V25.04h11.92V65.6h-11.92V57.28l.96.16a11.6553,11.6553,0,0,1-5.1191,6.48A16.1106,16.1106,0,0,1,666.5483,66.24Zm3.52-9.2a8.2743,8.2743,0,0,0,6.84-3.04q2.439-3.04,2.4394-8.8t-2.4394-8.84a8.2351,8.2351,0,0,0-6.84-3.08,8.3281,8.3281,0,0,0-6.92,3.2q-2.5209,3.2007-2.52,8.88,0,5.6814,2.44,8.68A8.5022,8.5022,0,0,0,670.0688,57.04Z"/><path class="cls-2" d="M720.2271,66.24a23.8021,23.8021,0,0,1-11.36-2.56,17.4213,17.4213,0,0,1-7.3193-7.24,23.0324,23.0324,0,0,1-2.5205-11.08,22.33,22.33,0,0,1,2.72-11.2,19.1638,19.1638,0,0,1,7.6006-7.48A23.3981,23.3981,0,0,1,720.7866,24a27.1407,27.1407,0,0,1,8.4805,1.36,18.3868,18.3868,0,0,1,6.72,3.68l-3.2,8.4a19.1873,19.1873,0,0,0-5.2793-3,15.9132,15.9132,0,0,0-5.6006-1.08,10.0644,10.0644,0,0,0-7.68,2.96q-2.8008,2.96-2.8,8.8,0,5.9209,2.76,8.88a10.0334,10.0334,0,0,0,7.72,2.96,16.4324,16.4324,0,0,0,5.6006-1.04,17.4153,17.4153,0,0,0,5.2793-3.04l3.2,8.4a18.686,18.686,0,0,1-6.88,3.64A29.6922,29.6922,0,0,1,720.2271,66.24Z"/><path class="cls-2" d="M741.7466,65.6V6.72h12.08V33.28l-1.36-.4a15.2807,15.2807,0,0,1,5.8008-6.6,16.1195,16.1195,0,0,1,8.6-2.28q14.3188,0,14.32,17.04V65.6h-12.08v-24q0-4.32-1.5605-6.24t-4.92-1.92A8.356,8.356,0,0,0,756.2271,36a9.6523,9.6523,0,0,0-2.4,6.88V65.6Z"/><path class="cls-2" d="M790.2271,6h13.04V17.36h-13.04Zm.4794,59.6V25.04h12.08V65.6Z"/><path class="cls-2" d="M812.6255,65.6V36.64q0-2.88-.12-5.8t-.52-5.8h11.3594l.8809,7.92-.8809-.08a15.2807,15.2807,0,0,1,5.8008-6.6,16.1195,16.1195,0,0,1,8.6-2.28q14.3189,0,14.32,17.04V65.6h-12.08v-24q0-4.32-1.5605-6.24t-4.92-1.92A8.356,8.356,0,0,0,827.106,36a9.6523,9.6523,0,0,0-2.4,6.88V65.6Z"/><path class="cls-2" d="M897.2651,61.28a22.272,22.272,0,0,1-7.1992,3.64,28.6463,28.6463,0,0,1-8.5605,1.32,25.0767,25.0767,0,0,1-11.72-2.56,17.9455,17.9455,0,0,1-7.5605-7.28,22.5874,22.5874,0,0,1-2.64-11.2,23.0859,23.0859,0,0,1,2.5606-11.04,18.9505,18.9505,0,0,1,7-7.48A19.6568,19.6568,0,0,1,879.5054,24a18.63,18.63,0,0,1,9.84,2.52,16.6231,16.6231,0,0,1,6.4,7.12,24.7272,24.7272,0,0,1,2.24,10.92v1.76H870.2251l.16-6h20.4l-3.12,2.48q.0792-5.1189-1.96-7.72a7.0333,7.0333,0,0,0-5.88-2.6,7.6176,7.6176,0,0,0-6.44,3q-2.2794,3-2.2793,8.76,0,6.8005,2.68,9.84,2.6793,3.0409,8.2,3.04a19.8578,19.8578,0,0,0,6.3194-1.04,21.0433,21.0433,0,0,0,5.7607-2.96Z"/><g class="cls-3"><path class="cls-4" d="M12.56,59.6H0L26.16,2.64H36.24L62.4,59.6H50L29.84,12.56h3.04Zm-.72-12.64,4.8-9.52H45.12l4.72,9.52Z"/><path class="cls-4" d="M81.3589,60.24q-7.6011,0-11.36-4.24-3.761-4.2393-3.76-12.8V19.04h12.08v24.4q0,3.7619,1.56,5.56a6.0675,6.0675,0,0,0,4.84,1.8,7.7254,7.7254,0,0,0,6-2.56,9.7409,9.7409,0,0,0,2.32-6.8V19.04h12.16V59.6H93.439V51.52l1.04.08a13.6279,13.6279,0,0,1-5.16,6.44A14.32,14.32,0,0,1,81.3589,60.24Z"/><path class="cls-4" d="M155.5977,59.6h-11.92V49.68l.96,1.76a11.657,11.657,0,0,1-5.12,6.48,16.1076,16.1076,0,0,1-8.64,2.32,16.4594,16.4594,0,0,1-9.32-2.68,18.0436,18.0436,0,0,1-6.32-7.44,25.5716,25.5716,0,0,1-2.28-11.16,25.498,25.498,0,0,1,2.24-11.04,16.734,16.734,0,0,1,15.68-9.92,15.5264,15.5264,0,0,1,8.64,2.44,12.243,12.243,0,0,1,5.12,6.44l-1.12,1.44V.72h12.08Zm-21.2-8.56a8.2745,8.2745,0,0,0,6.84-3.04q2.439-3.04,2.44-8.88,0-5.5986-2.44-8.72a8.1906,8.1906,0,0,0-6.84-3.12,8.4537,8.4537,0,0,0-7,3.04q-2.4412,3.0411-2.44,8.64,0,5.841,2.52,8.96A8.4114,8.4114,0,0,0,134.3975,51.04Z"/><path class="cls-4" d="M164.877,0h13.04V11.36h-13.04Zm.48,59.6V19.04h12.08V59.6Z"/><path class="cls-4" d="M206.6362,60.24a23.802,23.802,0,0,1-11.36-2.56,17.7941,17.7941,0,0,1-7.4-7.32,23.0917,23.0917,0,0,1-2.6-11.24,22.8661,22.8661,0,0,1,2.6-11.2,18.12,18.12,0,0,1,7.4-7.32,23.5215,23.5215,0,0,1,11.36-2.6,23.1692,23.1692,0,0,1,11.2,2.6,18.1233,18.1233,0,0,1,7.4,7.32,22.8815,22.8815,0,0,1,2.6,11.2,23.1073,23.1073,0,0,1-2.6,11.24,17.797,17.797,0,0,1-7.4,7.32A23.444,23.444,0,0,1,206.6362,60.24Zm0-9.2a8.3045,8.3045,0,0,0,6.8-2.92q2.4-2.9195,2.4-9,0-6-2.4-8.92a8.3075,8.3075,0,0,0-6.8-2.92,8.5151,8.5151,0,0,0-6.92,2.92q-2.4411,2.921-2.44,8.92,0,6.0805,2.4,9A8.49,8.49,0,0,0,206.6362,51.04Z"/><path class="cls-4" d="M258.8745,59.6V2.64h38.4v9.92h-26.08v13.2h24.48V35.6h-24.48v24Z"/><path class="cls-4" d="M339.1938,55.28a22.278,22.278,0,0,1-7.2,3.64,28.6369,28.6369,0,0,1-8.56,1.32,25.0735,25.0735,0,0,1-11.72-2.56,17.9388,17.9388,0,0,1-7.56-7.28,22.5832,22.5832,0,0,1-2.64-11.2,23.0915,23.0915,0,0,1,2.56-11.04,18.9548,18.9548,0,0,1,7-7.48,19.6586,19.6586,0,0,1,10.36-2.68,18.6316,18.6316,0,0,1,9.84,2.52,16.6189,16.6189,0,0,1,6.4,7.12,24.72,24.72,0,0,1,2.24,10.92v1.76h-27.76l.16-6h20.4l-3.12,2.48q.0791-5.1189-1.96-7.72a7.032,7.032,0,0,0-5.88-2.6,7.6155,7.6155,0,0,0-6.44,3q-2.28,3-2.28,8.76,0,6.8005,2.68,9.84,2.6791,3.0409,8.2,3.04a19.8591,19.8591,0,0,0,6.32-1.04,21.0253,21.0253,0,0,0,5.76-2.96Z"/><path class="cls-4" d="M363.4326,60.24a17.2309,17.2309,0,0,1-9.36-2.56,16.8966,16.8966,0,0,1-6.32-7.28,25.49,25.49,0,0,1-2.24-11.04,25.9115,25.9115,0,0,1,2.28-11.16,17.9589,17.9589,0,0,1,6.32-7.52,16.47,16.47,0,0,1,9.32-2.68,15.7156,15.7156,0,0,1,8.64,2.4,12.0268,12.0268,0,0,1,5.1191,6.48l-.959.64V19.04h11.92V59.6h-11.92V51.28l.959.16a11.6515,11.6515,0,0,1-5.1191,6.48A16.1081,16.1081,0,0,1,363.4326,60.24Zm3.52-9.2A8.2775,8.2775,0,0,0,373.7935,48q2.4375-3.04,2.4394-8.8,0-5.76-2.4394-8.84a8.2383,8.2383,0,0,0-6.8409-3.08,8.3286,8.3286,0,0,0-6.92,3.2q-2.52,3.2007-2.52,8.88,0,5.6814,2.44,8.68A8.5028,8.5028,0,0,0,366.9526,51.04Z"/><path class="cls-4" d="M393.3521,28.08V19.04h30.08v9.04Zm30.08,21.76v9.28a15.5817,15.5817,0,0,1-3.36.88,25.4606,25.4606,0,0,1-3.6.24q-7.522,0-11.4805-4.28t-3.96-11.88V9.52l12.08-3.92V43.84a7.299,7.299,0,0,0,.88,3.84,4.89,4.89,0,0,0,2.32,2.04,8.0327,8.0327,0,0,0,3.12.6,14.5162,14.5162,0,0,0,1.88-.12Q422.23,50.08,423.4321,49.84Z"/><path class="cls-4" d="M444.4712,60.24q-7.6011,0-11.3594-4.24-3.7617-4.2393-3.7607-12.8V19.04h12.08v24.4q0,3.7619,1.56,5.56a6.0664,6.0664,0,0,0,4.84,1.8,7.7254,7.7254,0,0,0,6-2.56,9.7411,9.7411,0,0,0,2.32-6.8V19.04H468.311V59.6h-11.76V51.52l1.04.08a13.6256,13.6256,0,0,1-5.16,6.44A14.3188,14.3188,0,0,1,444.4712,60.24Z"/><path class="cls-4" d="M478.0708,59.6V30.64q0-2.88-.12-5.8t-.5195-5.8h11.3593l1.28,10.72-1.28-.64a12.7017,12.7017,0,0,1,4.6006-8.24,13.2219,13.2219,0,0,1,8.28-2.8,11.28,11.28,0,0,1,2.4394.24,12.3318,12.3318,0,0,1,1.88.56l-.08,11.04a14.0846,14.0846,0,0,0-5.92-1.36,10.8536,10.8536,0,0,0-5.3994,1.2,8.22,8.22,0,0,0-3.28,3.4,11.0949,11.0949,0,0,0-1.16,5.24V59.6Z"/><path class="cls-4" d="M545.75,55.28a22.272,22.272,0,0,1-7.1992,3.64,28.647,28.647,0,0,1-8.5606,1.32,25.0763,25.0763,0,0,1-11.72-2.56,17.945,17.945,0,0,1-7.56-7.28,22.5874,22.5874,0,0,1-2.64-11.2A23.0859,23.0859,0,0,1,510.63,28.16a18.95,18.95,0,0,1,7-7.48A19.6564,19.6564,0,0,1,527.99,18a18.63,18.63,0,0,1,9.84,2.52,16.6238,16.6238,0,0,1,6.4,7.12,24.7272,24.7272,0,0,1,2.24,10.92v1.76H518.71l.16-6h20.4l-3.12,2.48q.079-5.1189-1.96-7.72a7.0331,7.0331,0,0,0-5.88-2.6,7.6178,7.6178,0,0,0-6.4405,3q-2.2793,3-2.2793,8.76,0,6.8005,2.68,9.84,2.6793,3.0409,8.2,3.04a19.8578,19.8578,0,0,0,6.3194-1.04,21.0447,21.0447,0,0,0,5.7607-2.96Z"/><path class="cls-4" d="M577.5083,59.6V2.64h9.92L607.9888,49.6h-4.4l20.48-46.96h9.84V59.6h-11.04l-.08-38.48,2.88.72-15.92,37.76h-8.08l-16.24-37.76,3.04-.72V59.6Z"/><path class="cls-4" d="M660.5483,60.24a17.2292,17.2292,0,0,1-9.3593-2.56,16.8909,16.8909,0,0,1-6.32-7.28,25.4812,25.4812,0,0,1-2.24-11.04,25.9056,25.9056,0,0,1,2.28-11.16,17.9535,17.9535,0,0,1,6.32-7.52A16.47,16.47,0,0,1,660.5483,18a15.718,15.718,0,0,1,8.6407,2.4,12.0309,12.0309,0,0,1,5.1191,6.48l-.96.64V19.04h11.92V59.6h-11.92V51.28l.96.16a11.6553,11.6553,0,0,1-5.1191,6.48A16.1106,16.1106,0,0,1,660.5483,60.24Zm3.52-9.2a8.2743,8.2743,0,0,0,6.84-3.04q2.439-3.04,2.4394-8.8t-2.4394-8.84a8.2351,8.2351,0,0,0-6.84-3.08,8.3281,8.3281,0,0,0-6.92,3.2q-2.5209,3.2007-2.52,8.88,0,5.6814,2.44,8.68A8.5022,8.5022,0,0,0,664.0688,51.04Z"/><path class="cls-4" d="M714.2271,60.24a23.8021,23.8021,0,0,1-11.36-2.56,17.4213,17.4213,0,0,1-7.3193-7.24,23.0324,23.0324,0,0,1-2.5205-11.08,22.33,22.33,0,0,1,2.72-11.2,19.1638,19.1638,0,0,1,7.6006-7.48A23.3981,23.3981,0,0,1,714.7866,18a27.1407,27.1407,0,0,1,8.4805,1.36,18.3868,18.3868,0,0,1,6.72,3.68l-3.2,8.4a19.1873,19.1873,0,0,0-5.2793-3,15.9132,15.9132,0,0,0-5.6006-1.08,10.0644,10.0644,0,0,0-7.68,2.96q-2.8008,2.96-2.8,8.8,0,5.9209,2.76,8.88a10.0334,10.0334,0,0,0,7.72,2.96,16.4324,16.4324,0,0,0,5.6006-1.04,17.4153,17.4153,0,0,0,5.2793-3.04l3.2,8.4a18.686,18.686,0,0,1-6.88,3.64A29.6922,29.6922,0,0,1,714.2271,60.24Z"/><path class="cls-4" d="M735.7466,59.6V.72h12.08V27.28l-1.36-.4a15.2807,15.2807,0,0,1,5.8008-6.6,16.1195,16.1195,0,0,1,8.6-2.28q14.3188,0,14.32,17.04V59.6h-12.08v-24q0-4.32-1.5605-6.24t-4.92-1.92A8.356,8.356,0,0,0,750.2271,30a9.6523,9.6523,0,0,0-2.4,6.88V59.6Z"/><path class="cls-4" d="M784.2271,0h13.04V11.36h-13.04Zm.4794,59.6V19.04h12.08V59.6Z"/><path class="cls-4" d="M806.6255,59.6V30.64q0-2.88-.12-5.8t-.52-5.8h11.3594l.8809,7.92-.8809-.08a15.2807,15.2807,0,0,1,5.8008-6.6,16.1195,16.1195,0,0,1,8.6-2.28q14.3189,0,14.32,17.04V59.6h-12.08v-24q0-4.32-1.5605-6.24t-4.92-1.92A8.356,8.356,0,0,0,821.106,30a9.6523,9.6523,0,0,0-2.4,6.88V59.6Z"/><path class="cls-4" d="M891.2651,55.28a22.272,22.272,0,0,1-7.1992,3.64,28.6463,28.6463,0,0,1-8.5605,1.32,25.0767,25.0767,0,0,1-11.72-2.56,17.9455,17.9455,0,0,1-7.5605-7.28,22.5874,22.5874,0,0,1-2.64-11.2,23.0859,23.0859,0,0,1,2.5606-11.04,18.9505,18.9505,0,0,1,7-7.48A19.6568,19.6568,0,0,1,873.5054,18a18.63,18.63,0,0,1,9.84,2.52,16.6231,16.6231,0,0,1,6.4,7.12,24.7272,24.7272,0,0,1,2.24,10.92v1.76H864.2251l.16-6h20.4l-3.12,2.48q.0792-5.1189-1.96-7.72a7.0333,7.0333,0,0,0-5.88-2.6,7.6176,7.6176,0,0,0-6.44,3q-2.2794,3-2.2793,8.76,0,6.8005,2.68,9.84,2.6793,3.0409,8.2,3.04a19.8578,19.8578,0,0,0,6.3194-1.04,21.0433,21.0433,0,0,0,5.7607-2.96Z"/></g></g></g></g></svg>