<svg xmlns="http://www.w3.org/2000/svg" viewBox="0 0 1279.5897 438.5146"><defs><style>.cls-1{fill:none;stroke:#082d26;stroke-miterlimit:10;}</style></defs><title>waves</title><g id="Layer_2" data-name="Layer 2"><g id="design"><path class="cls-1" d="M.0165,432.7463c205.0409.0556,409.8526,2.5622,614.846,4.7785,221.6374,2.3963,443.0648-4.7785,664.654-4.7785"/><path class="cls-1" d="M.0165,422.8072c204.8315.8539,409.5175,1.8379,614.3315,4.2244,221.788,2.5844,443.4161-4.2244,665.1685-4.2244"/><path class="cls-1" d="M.0165,412.9793c204.4172,1.1,408.7952.9664,613.2265,3.0345,222.1243,2.247,444.1669-3.0345,666.2735-3.0345"/><path class="cls-1" d="M.0165,403.2634c426.4511,1.8456,853.0045,0,1279.5,0"/><path class="cls-1" d="M.0165,393.66c63.5569.0942,127.0165-3.7919,190.5909-3.179,52.9669.5106,105.888,3.2029,158.8632,3.2149,86.73.02,173.4583-.9859,260.187-.8626q334.932.476,669.8589.8267"/><path class="cls-1" d="M.0165,384.171c64.5343-.1711,128.8856-5.5793,193.4494-4.565,52.0424.8176,104.0008,4.3884,156.0589,4.5746,85.9788.3075,171.8834-2.8636,257.85-3.2943,224.0768-1.1226,448.083,3.2847,672.1413,3.2847"/><path class="cls-1" d="M.0165,374.7959c65.5919-.4966,130.9133-7.5561,196.55-6.0683,51.046,1.1571,101.9543,5.6653,153.0266,6.0448,85.1694.6329,170.17-4.878,255.3054-5.9284,224.9684-2.7755,449.7074,5.9519,674.618,5.9519"/><path class="cls-1" d="M.0165,365.536c66.6819-.8538,133.0252-9.6446,199.7694-7.6292,50.0175,1.51,99.8249,6.9589,149.8825,7.5692,84.333,1.0282,168.3946-6.9617,252.6581-8.6618,225.9285-4.5582,451.3805,8.7218,677.19,8.7218"/><path class="cls-1" d="M.0165,356.392c67.7583-1.2134,135.145-11.7618,202.9841-9.1878,48.9931,1.8588,97.6905,8.3393,146.7429,9.0915,83.517,1.2806,166.6154-9.0465,250.0146-11.3913,95.2227-2.6774,190.7444-.1181,285.9978-.004,66.7048.08,133.0508,5.1149,199.62,8.8174,64.6669,3.5966,129.399,2.6742,194.1407,2.6742"/><path class="cls-1" d="M.0165,347.3648c68.78-1.5464,137.1915-13.8094,206.0709-10.6845,48.0139,2.1783,95.6279,9.67,143.7236,10.5554,82.7547,1.5229,164.9048-11.0637,247.4815-14.0138,94.9693-3.393,190.4141-.2345,285.4333-.0974,67.5238.0974,134.5634,6.3441,201.8862,10.8786,64.9145,4.3723,129.88,3.3617,194.9045,3.3617"/><path class="cls-1" d="M.0165,338.4551c69.7093-1.8232,139.0811-15.7114,208.9064-12.0592,47.1179,2.4644,93.7161,10.9032,140.941,11.9044,82.0833,1.74,163.3283-12.9439,245.1648-16.4262,94.729-4.0308,190.13-.3254,284.93-.1678,68.2875.1135,135.9557,7.472,203.9718,12.7733,65.1343,5.0767,130.3041,3.9755,195.5865,3.9755"/><path class="cls-1" d="M.0165,329.6637c70.5151-2.0142,140.7211-17.3593,211.3671-13.2523,46.344,2.6941,92.0347,11.99,138.5112,13.0826,81.54,1.9174,161.9508-14.6172,243.1709-18.5253,94.5213-4.548,189.9039-.3773,284.5161-.2044,68.9649.126,137.1648,8.4458,205.7883,14.42,65.31,5.6857,130.6512,4.4794,196.1464,4.4794"/><path class="cls-1" d="M.0165,320.9914c71.17-2.0891,142.0155-18.65,213.33-14.2039,45.73,2.851,90.6645,12.8812,136.55,14.0333,81.1579,2.0377,160.8379-16.0131,241.6059-20.2078,94.3676-4.901,189.75-.3779,284.2232-.1958,69.5248.134,138.1263,9.2118,207.2467,15.7368,65.4242,6.1761,130.902,4.8374,196.5441,4.8374"/><path class="cls-1" d="M.0165,312.439c71.6459-2.0163,142.8684-19.48,214.671-14.8543,45.311,2.9191,89.6878,13.529,135.1746,14.7,80.967,2.0851,160.0594-17.0611,240.576-21.3707,94.2892-5.0467,189.6783-.3147,284.08-.1308,69.9358.1363,138.7759,9.7165,208.2587,16.6423,65.46,6.5248,131.0365,5.0131,196.7393,5.0131"/><path class="cls-1" d="M.0165,304.0072c71.8989-1.7828,143.187-19.7493,215.2544-15.1371,45.1279,2.8881,89.2037,13.8709,134.5193,15.018,80.9832,2.05,159.7048-17.6679,240.1974-21.8985,94.2994-4.9563,189.6946-.1849,284.1037-.0074,70.1561.1319,139.04,9.9041,208.717,17.0459,65.4081,6.7043,131.0429,4.9791,196.7082,4.9791"/><path class="cls-1" d="M.0165,295.6968c71.3981-2.0778,142.4415-19.0691,213.9893-14.5236,45.5242,2.892,90.1918,13.1813,135.8808,14.3579,81.3982,2.096,161.1185-16.6924,242.0948-20.97,94.28-4.98,189.6268-.3351,284.0164-.1513,69.4763.1353,137.8656,9.528,206.8994,16.3429,65.4176,6.4579,130.9637,4.9441,196.6193,4.9441"/><path class="cls-1" d="M.0165,287.5087c70.4567-2.003,140.6031-17.241,211.19-13.1663,46.4,2.6785,92.1569,11.8981,138.6872,12.9973,82.6793,1.9531,164.1931-15.02,246.5456-18.9951,94.5019-4.5615,189.8811-.3614,284.4747-.19,68.1.1237,135.2788,8.6215,203.0056,14.8111,65.0927,5.9488,130.3017,4.5426,195.5973,4.5426"/><path class="cls-1" d="M.0165,279.4436c69.1768-1.6692,137.9957-14.6188,207.2789-11.27,47.632,2.3021,94.8158,10.1864,142.54,11.1293,84.62,1.6719,168.4542-12.8507,252.8455-16.2626,94.8827-3.8361,190.3806-.2977,285.3278-.1513,66.2181.1021,131.6765,7.3379,197.6084,12.6789,64.532,5.2276,129.21,3.8758,193.9,3.8758"/><path class="cls-1" d="M.0165,271.5023c67.6571-1.18,134.9441-11.56,202.68-9.0406,49.09,1.8263,97.8927,8.2117,147.04,8.9475,86.9843,1.3025,173.4478-10.3823,260.29-13.0612,95.3412-2.9411,191.0466-.1777,286.4255-.0657,64.023.0751,127.454,5.83,191.2806,10.1754,63.8329,4.3458,127.8407,3.0446,191.7841,3.0446"/><path class="cls-1" d="M.0165,263.6855c66.0223-.6358,131.7437-8.3742,197.8175-6.6828,50.64,1.2963,101.1168,6.186,151.7885,6.6451,89.5307.8111,178.72-7.8085,268.174-9.68,95.8081-2.0041,191.7914-.0366,287.617.0382,61.71.0481,123.0021,4.2478,184.5954,7.5291,63.0887,3.3609,126.3516,2.15,189.5076,2.15"/><path class="cls-1" d="M.0165,255.9941c64.42-.1377,128.6662-5.3675,193.1137-4.4022,52.1506.7811,104.2223,4.2524,156.3877,4.4152,92.0051.2872,183.8208-5.318,275.7934-6.4066,218.2141-2.5829,436.0784,6.3936,654.2052,6.3936"/><path class="cls-1" d="M.0165,248.4289c210.6184.7229,421.2392-2.51,631.8745-3.4834,215.9217-.9979,431.7335,3.4834,647.6255,3.4834"/><path class="cls-1" d="M.0165,240.9906c426.4382,2.2871,853.0438,0,1279.5,0"/><path class="cls-1" d="M.0165,233.68c426.4951.86,853.0036,0,1279.5,0"/><path class="cls-1" d="M.0165,226.4979h1279.5"/><path class="cls-1" d="M.0165,219.4451h1279.5"/><path class="cls-1" d="M.0165,212.5223h1279.5"/><path class="cls-1" d="M.0165,205.73h1279.5"/><path class="cls-1" d="M.0165,199.07h1279.5"/><path class="cls-1" d="M.0165,192.5423h1279.5"/><path class="cls-1" d="M.0165,186.1477q639.75-.0537,1279.5,0"/><path class="cls-1" d="M.0165,179.8871c426.507-.3264,853,1.187,1279.5,0"/><path class="cls-1" d="M.0165,173.7612q174.8763-.199,349.7644-.1217c94.3269.1773,188.52-5.1694,282.832-5.1354,99.1817.0357,198.2588,5.3562,297.4227,5.4751q174.7194.2092,349.4809-.218"/><path class="cls-1" d="M.0165,167.7709c116.6584-.1422,233.335-.4494,349.9926-.24,92.4358.166,184.45-9.0362,276.8426-9.6618,101.1321-.6847,201.8655,8.97,302.9327,10.0363,116.4924,1.2293,233.2361.333,349.7321-.1345"/><path class="cls-1" d="M.0165,161.9169c116.758-.1191,233.5337-.537,350.29-.3943,90.3807.1105,179.8554-13.3491,270.1418-14.8022,103.3048-1.6628,205.8458,12.9016,309.0035,15.2037,116.44,2.5985,233.5882.33,350.0644-.0072"/><path class="cls-1" d="M.0165,156.2c116.883-.065,233.7729-.6141,350.6534-.5828,88.3811.0237,175.1621-17.7509,263.3748-20.024,105.4726-2.7177,209.85,16.893,315.0641,20.4993,55.4711,1.9013,111.0715-.4913,166.5417-1.401,61.3429-1.0061,122.5464,1.5523,183.866,1.5085"/><path class="cls-1" d="M.0165,150.6212c117.0339.0188,234.0485-.6913,351.0782-.8034,86.6422-.0831,170.8011-21.87,257.1865-24.794C715.72,121.387,821.769,145.71,928.8248,150.4681c55.5548,2.4693,111.33-.6829,166.8834-1.9068,61.3738-1.3521,122.4727,1.9079,183.8083,2.06"/><path class="cls-1" d="M.0165,145.1809c117.2106.1311,234.3569-.7793,351.5609-1.0541,85.3458-.2,167.2182-25.32,252.2221-28.58C712.8474,111.3659,820.1244,139.57,928.67,145.1079c55.6045,2.8371,111.5086-1.0351,167.1029-2.6105,61.4279-1.7407,122.3742,2.2773,183.7435,2.6835"/><path class="cls-1" d="M.0165,139.88c117.4131.27,234.6946-.8891,352.0975-1.3329,84.638-.32,164.89-27.7053,249.1267-30.848,110.1483-4.1095,217.9159,26.6488,327.4741,32.37,55.61,2.904,111.5531-1.6036,167.13-3.5637,61.5114-2.1693,122.2463,2.6593,183.6722,3.3747"/><path class="cls-1" d="M.0165,134.72c117.6191.3256,235.1279-1.6854,352.721-1.7044,84.6118-.0137,164.5044-27.9794,248.6459-31.3557,110.1444-4.42,217.7219,27.4592,327.221,33.4379,55.71,3.0418,111.686-2.1323,167.3276-4.5661,61.6371-2.6961,122.08,3.3213,183.5845,4.1883"/><path class="cls-1" d="M.0165,129.7c60,.1971,119.9762,2.9108,179.9814,1.9153,57.8125-.9592,115.5823-4.2548,173.4149-4.0251,84.6616.3361,164.3383-28.0066,248.4575-31.6963,109.9894-4.8244,217.3,28.0668,326.5885,34.3644,55.8386,3.2176,111.8423-2.68,167.568-5.627,61.81-3.2683,121.8754,4.0333,183.49,5.0687"/><path class="cls-1" d="M.0165,124.8227c59.7549.2377,119.4766,3.4754,179.238,2.2529,58.3-1.1925,116.5439-5.2493,174.8758-4.79,84.7439.667,164.24-27.9846,248.371-31.97,109.7932-5.2015,216.7852,28.665,325.8205,35.2674,55.9773,3.39,111.995-3.2751,167.805-6.762,62.0359-3.8758,121.6277,4.754,183.39,6.0021"/><path class="cls-1" d="M.0165,120.0877c59.4977.2875,118.9516,4.065,178.458,2.6081,58.8112-1.44,117.5541-6.273,176.412-5.5929,84.857.9806,164.205-27.9159,248.38-32.181,109.56-5.5513,216.1821,29.2534,324.9264,36.1468,56.1263,3.5578,112.1445-3.9125,168.0384-7.9646,62.32-4.518,121.3336,5.4815,183.2851,6.9836"/><path class="cls-1" d="M.0165,115.4961c59.2305.3454,118.4034,4.676,177.6451,2.9789,59.3438-1.7,118.6078-7.323,178.0156-6.4292,85,1.2788,164.2281-27.8029,248.4794-32.3317,109.2944-5.875,215.4965,29.8313,323.9153,37.0019,56.2854,3.7226,112.2917-4.5889,168.2684-9.2284,29.7908-2.4692,59.8145-4.3811,89.647-1.6007,31.3,2.9172,62.0307,8.7,93.5292,9.6092"/><path class="cls-1" d="M.0165,111.0487c58.9546.41,117.8339,5.3048,176.8031,3.3637,59.8947-1.9716,119.7-8.3965,179.6792-7.2956C441.67,108.68,520.8034,79.4689,605.1615,74.6912c108.9993-6.1733,214.7339,30.398,322.7967,37.8325,56.4545,3.8839,112.4372-5.3006,168.4947-10.547,29.7876-2.7877,59.8535-4.98,89.6945-1.818,31.2769,3.3137,61.84,9.8185,93.3691,10.89"/><path class="cls-1" d="M.0165,106.7463c58.6717.4817,117.2452,5.9481,175.9355,3.7607,60.4612-2.2534,120.8265-9.4909,181.3953-8.1882,85.3679,1.836,164.43-27.4533,248.9243-32.466,108.6787-6.4473,213.9,30.9531,321.58,38.6383,56.633,4.0419,112.5815-6.0441,168.7172-11.9139,29.7845-3.1144,59.8929-5.6012,89.744-2.0434,31.2555,3.7251,61.636,10.9637,93.2038,12.2125"/><path class="cls-1" d="M.0165,102.59c58.3833.5582,116.6392,6.6025,175.046,4.1682,61.0406-2.544,121.9821-10.6034,183.1563-9.1033,85.59,2.0987,164.6011-27.2214,249.2587-32.4559,108.3358-6.6986,213,31.4956,320.2738,39.4185,56.8206,4.1966,112.7254-6.8156,168.9361-13.3226,29.7814-3.4475,59.9322-6.2428,89.7951-2.2755,31.2357,4.15,61.418,12.1314,93.034,13.5706"/><path class="cls-1" d="M.0165,98.58c58.091.6389,116.0177,7.2648,174.1382,4.5844,61.63-2.8423,123.1621-11.7313,184.9548-10.0372,85.8343,2.3533,164.8127-26.9545,249.66-32.3987C716.7434,53.8,820.81,92.7534,927.6573,100.9011c57.0163,4.3479,112.87-7.6114,169.1509-14.7667,29.7787-3.7859,59.9716-6.9016,89.8478-2.5134,31.2178,4.5853,61.1871,13.3174,92.8605,14.9585"/><path class="cls-1" d="M.0165,94.7167c57.7965.7229,115.3828,7.9321,173.216,5.0075,62.2271-3.1468,124.3617-12.872,186.7832-10.9859,86.1,2.6016,165.0607-26.6551,250.1212-32.2978,107.5973-7.1376,211.0286,32.5419,317.432,40.9018,57.22,4.4956,113.0147-8.4281,169.3622-16.24,29.7754-4.128,60.01-7.5746,89.9013-2.7557,31.2015,5.03,60.9442,14.5175,92.6841,16.37"/><path class="cls-1" d="M.0165,91.002c57.5014.8093,114.7362,8.6016,172.2828,5.4359,62.8287-3.4562,125.5763-14.023,188.6339-11.9459,42.3069,1.3936,81.8777-1.5493,123.3427-10.2172,42.2622-8.8346,84.0694-18.9841,127.2953-21.9389C718.779,45.0074,821.54,85.38,927.4859,93.94c57.43,4.64,113.1608-9.2617,169.5694-17.7356,29.7721-4.4724,60.049-8.2588,89.9558-3.0014,31.187,5.4825,60.69,15.7274,92.5054,17.7994"/><path class="cls-1" d="M.0165,87.4362c57.2072.8971,114.08,9.27,171.3423,5.8677,63.4325-3.7692,126.8011-15.1817,190.5-12.9133,42.4384,1.5113,82.0059-1.1656,123.6272-9.83,42.3651-8.8193,84.2591-19.1044,127.5767-22.147,106.8087-7.5021,208.867,33.5324,314.3453,42.279,57.6456,4.78,113.3087-10.1089,169.7727-19.2475,29.7681-4.8178,60.0878-8.9511,90.0109-3.2494,31.1744,5.94,60.4248,16.9432,92.3252,19.2406"/><path class="cls-1" d="M.0165,84.02c56.9155.9855,113.4161,9.9358,170.3984,6.3012C234.45,86.2368,298.4461,73.9759,362.7874,76.437c42.5775,1.6285,82.1448-.7718,123.9327-9.427,42.4758-8.7977,84.4648-19.2113,127.88-22.3369C721.0038,37.0128,822.3312,78.6787,927.334,87.6c57.8668,4.9165,113.4582-10.9657,169.972-20.7688,29.7631-5.1629,60.1266-9.6485,90.066-3.4986,31.1637,6.4014,60.1507,18.16,92.1445,20.6876"/><path class="cls-1" d="M.0165,80.7544C56.6443,81.8279,112.763,91.35,169.471,87.4892c64.6354-4.4006,129.2623-17.5118,194.2453-14.8554,42.7229,1.7464,82.2922-.3684,124.2558-9.0092,42.5936-8.77,84.6846-19.3061,128.2042-22.51C722.17,33.31,822.742,75.5776,927.2644,84.6611c58.0921,5.0485,113.6094-11.8284,170.1672-22.2935,29.7567-5.506,60.1658-10.3475,90.1214-3.7475,31.1545,6.864,59.8679,19.3752,91.9635,22.1343"/><path class="cls-1" d="M.0165,77.64C56.3621,78.8,112.09,88.8871,168.5308,84.8065,233.76,80.09,299.02,66.1283,364.6413,68.984c42.8734,1.8658,82.4466.0433,124.5936-8.5783,42.7172-8.7382,84.9164-19.39,128.5448-22.67C723.3626,29.8,823.1583,72.6418,927.1985,81.8753,985.52,87.0513,1040.96,69.1822,1097.5567,58.06c29.7488-5.846,60.2059-11.0449,90.1763-3.9955,31.1473,7.3262,59.5781,20.5835,91.7835,23.5751"/><path class="cls-1" d="M.0165,74.6776c56.07,1.2446,111.3992,11.8881,167.5816,7.5946C233.4128,77.2427,299.3064,62.43,365.5584,65.49c43.0282,1.9875,82.6064.4629,124.9432-8.1355,42.846-8.7018,85.1584-19.4648,128.9-22.8162,105.1735-8.0581,204.1761,35.3319,307.7347,44.703,58.553,5.2985,113.9157-13.5561,170.5451-25.3266,29.7386-6.1813,60.2468-11.7375,90.2307-4.2411,31.1418,7.7858,59.2823,21.7812,91.6049,25.0037"/><path class="cls-1" d="M.0165,71.8681c55.8028,1.3258,110.7261,12.5162,166.66,8.0174,66.3889-5.34,132.9139-21.0017,199.7874-17.73,43.1862,2.1128,82.77.8894,125.3016-7.6823,42.9786-8.6618,85.4083-19.5314,129.2655-22.9518C725.7989,23.35,823.9954,67.2629,927.076,76.7592c58.7871,5.4158,114.07-14.4131,170.7276-26.8222,29.726-6.5106,60.2892-12.4217,90.2844-4.4833,31.1379,8.2409,58.9817,22.9646,91.4285,26.4144"/><path class="cls-1" d="M.0165,69.2121c55.5446,1.4032,110.0567,13.13,165.753,8.4333C232.7189,72,299.8711,55.4914,367.3538,58.9822c43.3462,2.2423,82.935,1.3221,125.6655-7.22,43.1143-8.6189,85.6643-19.5913,129.64-23.0785C727.0282,20.4072,824.41,64.8181,927.0185,74.4273c59.0231,5.5274,114.2237-15.26,170.9059-28.2953,29.7106-6.8325,60.333-13.094,90.3369-4.7208,31.136,8.6892,58.6778,24.13,91.2552,27.8009"/><path class="cls-1" d="M.0165,66.7105c55.2965,1.4756,109.3937,13.7259,164.8644,8.84,67.4935-5.9445,135.2671-23.2969,203.3434-19.5772,43.5072,2.3772,83.1,1.76,126.0322-6.75,43.2521-8.5737,85.9244-19.6457,130.02-23.1981,103.9784-8.3766,200.5409,36.51,302.6863,46.22,59.26,5.6331,114.3761-16.0929,171.08-29.7393,29.6918-7.1456,60.3786-13.751,90.388-4.9526,31.1359,9.1287,58.3716,25.2727,91.0856,29.1574"/><path class="cls-1" d="M.0165,64.3641c55.06,1.5422,108.74,14.3031,163.998,9.2368C232.033,67.3645,300.42,49.1729,369.0716,53.1322c43.6682,2.5184,83.264,2.2023,126.3986-6.2744,43.3909-8.5269,86.1866-19.6958,130.4032-23.3121,103.5991-8.4731,199.3425,36.8681,301.0359,46.6658,59.4988,5.7324,114.5261-16.9071,171.2494-31.1478,29.6692-7.4487,60.4261-14.3892,90.4372-5.1777,31.1376,9.5574,58.0646,26.39,90.9206,30.4781"/><path class="cls-1" d="M.0165,62.1736c54.8344,1.6021,108.0985,14.8592,163.1572,9.621,68.5219-6.5192,137.5126-25.545,206.718-21.3338,43.8283,2.667,83.4243,2.6484,126.7618-5.7935,43.53-8.4793,86.4489-19.7432,130.7862-23.4229,103.2329-8.5676,198.1617,37.2085,299.417,47.0816,59.7379,5.8249,114.6722-17.6981,171.4143-32.5145,29.6428-7.74,60.4758-15.0049,90.4847-5.3946,31.1414,9.9729,57.7582,27.4781,90.7608,31.7567"/><path class="cls-1" d="M.0165,60.14C54.6384,61.7943,107.489,75.532,162.3623,70.131c69.0011-6.7916,138.5837-26.6457,208.3186-22.1686C414.6672,50.7864,454.26,51.06,497.8,42.653c43.6678-8.4315,86.7093-19.7891,131.1663-23.5319,102.8823-8.6618,197.0057,37.5306,297.839,47.4665,59.9778,5.91,114.8132-18.4614,171.5748-33.8328,29.6122-8.0191,60.5277-15.5944,90.53-5.6024,31.147,10.3733,57.4534,28.5332,90.6069,32.9875"/><path class="cls-1" d="M.0165,58.2637c54.4224,1.6981,106.8653,15.9,161.5675,10.3454C231.0372,61.5568,301.1983,40.8813,371.4353,45.64c44.1412,2.99,83.7272,3.5482,127.4661-4.8233,43.804-8.384,86.9659-19.8345,131.5407-23.6411C732.9916,8.4178,826.3232,55.01,926.7533,64.9956c60.2182,5.9877,114.9472-19.1924,171.7308-35.0963,29.5769-8.2839,60.5818-16.1544,90.5726-5.8,31.1551,10.7563,57.1518,29.5519,90.46,34.1644"/><path class="cls-1" d="M.0165,56.5458c54.2363,1.7325,106.2805,16.38,160.8259,10.6822,69.8757-7.3,140.6-28.7893,211.3085-23.7328,44.2919,3.1675,83.8664,4.0005,127.8014-4.3366C543.89,30.8211,587.169,19.2777,631.859,15.4064,734.0954,6.55,826.6537,53.5257,926.7018,63.5491c60.4591,6.0571,115.0727-19.8862,171.882-36.2987,29.537-8.5334,60.6382-16.6809,90.6126-5.9861,31.1654,11.12,56.8545,30.531,90.32,35.2815"/><path class="cls-1" d="M.0165,54.9871c54.0642,1.7565,105.7217,16.8317,160.1247,10.9995,70.2659-7.5326,141.5366-29.8278,212.6829-24.4544,44.4373,3.3561,83.9949,4.453,128.1213-3.8508,44.067-8.2927,87.46-19.9295,132.2612-23.8672C735.1521,4.8542,826.96,52.1993,926.65,62.2472c60.7006,6.1181,115.1878-20.5378,172.0285-37.4333,29.4921-8.7663,60.6969-17.1707,90.6494-6.16,31.1786,11.4617,56.563,31.4667,90.1888,36.3328"/><path class="cls-1" d="M.0165,53.5881c53.9061,1.77,105.1927,17.2517,159.4675,11.296,70.621-7.75,142.42-30.8412,213.9668-25.131,44.5764,3.5577,84.1112,4.9053,128.4229-3.3672,44.1921-8.25,87.6929-19.9815,132.6017-23.9877C736.154,3.3278,827.24,51.03,926.5969,61.0891c60.9429,6.17,115.2907-21.1422,172.17-38.4937,29.4419-8.9815,60.7578-17.62,90.6829-6.32,31.1946,11.78,56.2784,32.356,90.0663,37.3122"/><path class="cls-1" d="M.0165,52.35C53.7787,54.12,104.7139,69.9882,158.8745,63.92c70.9384-7.9488,143.2449-31.8276,215.1527-25.7586,44.7078,3.7733,84.2135,5.3563,128.7032-2.8873,44.3116-8.2105,87.9145-20.0382,132.9252-24.1157C737.0934,1.9686,827.49,50.0164,926.5428,60.0741,987.7286,66.2869,1041.9222,38.38,1098.85,20.6c29.3865-9.1777,60.821-18.0251,90.7128-6.4645,31.2136,12.0719,56.0018,33.1956,89.9535,38.2139"/><path class="cls-1" d="M.0165,51.273c53.6328,1.7586,104.24,17.99,158.3,11.8187C229.5316,54.9625,302.3245,30.3071,374.55,36.7583c44.83,4.0044,84.3,5.8053,128.9591-2.4124,44.4245-8.1744,88.1226-20.1008,133.2289-24.2531C737.9627.7745,827.7073,49.1583,926.4869,59.2013c61.4295,6.2455,115.4523-22.19,172.44-40.3667,29.3256-9.3538,60.8865-18.3827,90.7386-6.5935,31.2365,12.3358,55.735,33.9821,89.8514,39.0319"/><path class="cls-1" d="M.0165,50.3585C53.5344,52.0915,103.8406,68.6616,157.8132,62.4c71.4488-8.2892,144.7055-33.71,217.2006-26.8516,44.9427,4.2519,84.37,6.2513,129.1878-1.944,44.53-8.1425,88.315-20.17,133.51-24.4016C738.7543-.2569,827.89,48.4548,926.429,58.47c61.6739,6.2682,115.5073-22.6228,172.5667-41.1661,29.2592-9.5087,60.9544-18.6892,90.7605-6.7055,31.2632,12.57,55.4786,34.7127,89.76,39.76"/><path class="cls-1" d="M.0165,49.6069C53.4342,51.3,103.4706,68.1837,157.3688,61.8429c71.636-8.4275,145.3325-34.6026,218.0474-27.31,45.0433,4.5176,84.42,6.6935,129.3862-1.4835,44.6271-8.1153,88.49-20.2484,133.7654-24.563C739.46-1.1279,828.0342,47.9051,926.3685,57.8787c61.9193,6.28,115.5427-22.9886,172.689-41.8656,29.1869-9.6414,61.0244-18.9412,90.7778-6.7992,31.2941,12.7707,55.2343,35.3837,89.6812,40.393"/><path class="cls-1" d="M.0165,49.0191C53.3487,50.6571,103.15,67.8276,156.9867,61.42c71.7742-8.5425,145.8857-35.46,218.7663-27.7036,45.1305,4.8027,84.4505,7.1311,129.5511-1.0322C550.0191,24.5907,593.95,12.3484,639.2968,7.945,740.0732-1.8408,828.1379,47.5084,926.3051,57.4274c62.1652,6.2813,115.5567-23.2822,172.8061-42.4589,29.109-9.75,61.0969-19.1351,90.79-6.8734,31.33,12.9374,55.0031,35.9923,89.6148,40.924"/><path class="cls-1" d="M.0165,48.5959C53.2783,50.163,102.8841,67.5917,156.6706,61.13c71.86-8.6329,146.3611-36.2791,219.35-28.03,45.2027,5.1089,84.4595,7.5632,129.68-.5916,44.7927-8.0776,88.78-20.4339,134.1887-24.9321,100.6964-9.9748,188.31,39.6874,286.35,49.5384,62.4114,6.271,115.5476-23.4989,172.9182-42.9394,29.025-9.8354,61.1719-19.2678,90.798-6.9271,31.37,13.0673,54.7866,36.5352,89.5619,41.3474"/><path class="cls-1" d="M.0165,48.338c53.2066,1.48,102.659,19.1365,156.4077,12.6343,71.8914-8.697,146.755-37.0592,219.79-28.2845,45.2577,5.4375,84.4458,7.9887,129.7693-.1631C550.8424,24.4564,594.8736,11.981,640.334,7.3814c100.6544-10.184,187.8782,39.79,285.8339,49.5591C988.8256,63.19,1041.682,33.3068,1099.193,13.64c28.9354-9.8949,61.25-19.3359,90.8-6.9591,31.417,13.1583,54.586,37.0093,89.5232,41.6572"/><path class="cls-1" d="M.0165,48.2464c53.1671,1.3754,102.5117,19.2279,156.2346,12.6992,71.8644-8.7335,147.064-37.798,220.0792-28.4639,45.2932,5.79,84.4085,8.4067,129.8162.252,44.9141-8.0662,88.9763-20.6666,134.4762-25.3749,100.6524-10.4154,187.5547,39.87,285.4705,49.5445,62.9034,6.2153,115.4549-23.6824,173.1269-43.5361,28.84-9.9282,61.33-19.3363,90.797-6.9684,31.47,13.2083,54.4028,37.4113,89.4994,41.8476"/></g></g></svg>